<?xml version="1.0" encoding="UTF-8"?>
<svg width="40px" height="38px" viewBox="0 0 40 38" version="1.1" xmlns="http://www.w3.org/2000/svg" xmlns:xlink="http://www.w3.org/1999/xlink">
    <!-- Generator: Sketch 49.3 (51167) - http://www.bohemiancoding.com/sketch -->
    <title>Page 1</title>
    <desc>Created with Sketch.</desc>
    <defs></defs>
    <g id="Page-1" stroke="none" stroke-width="1" fill="none" fill-rule="evenodd">
        <g id="Artboard-2" transform="translate(-230.000000, -444.000000)" stroke="#979797">
            <path d="M241.71,465.099996 L247.37,459.439996 L233.34,445.409996 C230.22,448.529996 230.22,453.599996 233.34,456.719996 L241.71,465.099996 Z M255.28,461.469996 C258.33,462.899996 262.64,461.889996 265.82,458.709996 C269.65,454.879996 270.38,449.409996 267.45,446.479996 C264.51,443.549996 259.03,444.279996 255.21,448.109996 C252.03,451.289996 251.03,455.599996 252.45,458.649996 C248,463.089996 232.92,478.169998 232.92,478.169998 L235.75,481 L249.51,467.239996 L263.27,480.999996 L266.1,478.169998 L252.34,464.409996 L255.28,461.469996 Z" id="Page-1"></path>
        </g>
    </g>
</svg>